<svg width="73" height="104" viewBox="0 0 73 104" fill="none" xmlns="http://www.w3.org/2000/svg">
<path d="M18.0442 10.4068L0.0211487 20.7945V41.5382L18.0378 31.2076L18.0442 10.4068Z" fill="white"/>
<path d="M34.7132 20.8305V0.776436L21.0441 8.66773L21.0188 29.4876L34.7132 21.6027V20.8305Z" fill="white"/>
<path d="M18.0442 34.6201L0 45.0988L0.0211543 93.6652L18.0442 83.1844V34.6201Z" fill="white"/>
<path d="M72.0921 62.4025L36.0566 83.1992V104L72.0815 83.214L72.0921 62.4025Z" fill="white"/>
<path d="M70.7487 61.6261L36.0566 41.5911V62.4152L52.7151 72.0329L70.7487 61.6261Z" fill="white"/>
<path d="M55.4273 51.2278L72.0837 41.6059L72.0921 20.748L37.3979 40.8147L55.4273 51.2278Z" fill="white"/>
<path d="M70.7466 19.9736L36.0566 0V20.8305L52.6855 30.4206L70.7466 19.9736Z" fill="white"/>
</svg>
